<svg width="785" height="425" viewBox="0 0 785 425" fill="none" xmlns="http://www.w3.org/2000/svg">
<path d="M38.958 368.586H3.9962V155.05H38.958V368.586Z" fill="#F9F7F6"/>
<path fill-rule="evenodd" clip-rule="evenodd" d="M42.4833 372.112H0.470856V151.525H42.4833V372.112ZM38.958 368.586V155.05H3.99617V368.586H38.958Z" fill="#F9F7F6"/>
<path d="M163.497 216.93H200.223L149.864 389.041C144.349 407.888 127.064 420.84 107.427 420.84H56.3782L84.7693 390.019H101.483C106.473 390.019 110.02 385.165 108.504 380.411L56.3785 216.93C76.6237 216.93 94.2177 216.93 94.2177 216.93L128.718 332.952L163.497 216.93Z" fill="#F9F7F6"/>
<path fill-rule="evenodd" clip-rule="evenodd" d="M160.874 213.405H204.928L153.248 390.031C147.293 410.381 128.631 424.365 107.428 424.365H48.3383L83.2243 386.494H101.484C104.086 386.494 105.937 383.962 105.146 381.482L51.5548 213.405H94.2181C94.2182 213.405 94.2183 213.405 94.2183 216.93H56.3791L108.505 380.411C110.021 385.165 106.473 390.019 101.484 390.019H84.7699L56.3788 420.84H107.428C127.065 420.84 144.35 407.888 149.864 389.041L200.224 216.93H163.497L128.719 332.952L94.2183 216.93L94.2181 213.405H96.8479L128.732 320.629L160.874 213.405Z" fill="#F9F7F6"/>
<path d="M617.793 423.165C613.42 423.165 610.039 422.219 607.65 420.235C605.261 418.296 604.043 415.501 604.043 411.85H610.039C610.039 414.149 610.715 415.772 612.068 416.764C613.42 417.755 615.359 418.251 617.973 418.251C620.047 418.251 621.67 417.891 622.797 417.079C623.879 416.268 624.465 415.141 624.465 413.608C624.465 412.346 623.969 411.399 623.023 410.723C622.076 410.092 620.363 409.506 617.883 408.965L615.178 408.424C608.281 407.161 604.855 403.916 604.855 398.686C604.855 395.936 605.892 393.727 608.011 392.104C610.084 390.482 613.015 389.625 616.756 389.625C620.994 389.625 624.195 390.527 626.359 392.33C628.522 394.133 629.695 396.658 629.83 399.903H623.924C623.789 398.1 623.158 396.748 622.076 395.846C620.994 394.99 619.236 394.539 616.846 394.539C614.953 394.539 613.556 394.899 612.564 395.576C611.572 396.297 611.076 397.244 611.076 398.506C611.076 399.813 611.527 400.805 612.429 401.481C613.33 402.203 614.998 402.789 617.342 403.239L620.137 403.78C623.879 404.547 626.584 405.674 628.252 407.161C629.92 408.649 630.776 410.678 630.776 413.292C630.776 416.448 629.604 418.883 627.35 420.596C625.051 422.309 621.85 423.165 617.793 423.165Z" fill="#F9F7F6"/>
<path d="M579.447 423.165C574.804 423.165 571.062 421.678 568.222 418.612C565.337 415.592 563.894 411.534 563.894 406.395C563.894 401.256 565.292 397.199 568.177 394.133C570.972 391.158 574.759 389.625 579.447 389.625C583.189 389.625 586.389 390.662 589.049 392.645C591.664 394.674 593.332 397.604 594.008 401.391H587.832C587.291 399.317 586.254 397.694 584.812 396.613C583.369 395.531 581.566 394.945 579.447 394.945C576.562 394.945 574.308 395.981 572.685 398.01C571.062 400.039 570.25 402.834 570.25 406.395C570.25 410.002 571.062 412.842 572.685 414.825C574.308 416.854 576.562 417.846 579.447 417.846C581.656 417.846 583.549 417.215 585.172 415.862C586.75 414.555 587.697 412.706 588.057 410.362H594.143C593.738 414.465 592.16 417.62 589.365 419.829C586.57 422.083 583.279 423.165 579.447 423.165Z" fill="#F9F7F6"/>
<path d="M552.306 422.445H546.221V390.347H552.306V422.445Z" fill="#F9F7F6"/>
<path d="M508.799 390.347H535.487V395.802H525.208V422.445H519.077V395.802H508.799V390.347Z" fill="#F9F7F6"/>
<path d="M485.368 423.121C481.176 423.121 477.885 422.039 475.495 419.785C473.106 417.531 471.934 414.42 471.934 410.363V390.347H478.02V410.408C478.02 412.843 478.651 414.691 479.913 415.953C481.176 417.215 482.979 417.847 485.368 417.847C487.712 417.847 489.561 417.215 490.823 415.953C492.085 414.691 492.716 412.843 492.716 410.408V390.347H498.802V410.363C498.802 414.465 497.585 417.621 495.241 419.83C492.852 422.039 489.561 423.121 485.368 423.121Z" fill="#F9F7F6"/>
<path d="M460.963 390.347V395.802H443.382V403.376H459.296V408.605H443.382V416.99H460.873V422.445H437.296V390.347H460.963Z" fill="#F9F7F6"/>
<path d="M400.398 390.347H414.508C418.07 390.347 420.865 391.294 422.848 393.187C424.832 395.081 425.869 397.605 425.869 400.806C425.869 404.007 424.832 406.531 422.848 408.425C420.865 410.318 418.07 411.22 414.508 411.22H406.484V422.445H400.398V390.347ZM406.484 405.99H414.238C415.996 405.99 417.349 405.585 418.295 404.683C419.242 403.781 419.738 402.519 419.738 400.806C419.738 399.138 419.242 397.831 418.295 396.929C417.349 396.027 415.996 395.577 414.238 395.577H406.484V405.99Z" fill="#F9F7F6"/>
<path d="M390.388 422.445H383.942L381.417 415.367H367.352L364.872 422.445H358.606L370.823 390.347H377.946L390.388 422.445ZM370.417 406.712L369.2 410.183H379.569L378.307 406.712C377.225 404.052 375.917 400.4 374.339 395.712C373.077 399.454 371.77 403.105 370.417 406.712Z" fill="#F9F7F6"/>
<path d="M349.166 413.924L349.437 418.703C349.437 420.236 349.797 421.498 350.428 422.445H344.162C343.621 421.543 343.306 420.281 343.306 418.613L343.17 415.097C343.08 413.158 342.629 411.806 341.818 411.039C341.007 410.273 339.744 409.867 338.031 409.867H330.097V422.445H324.011V390.347H338.572C342.134 390.347 344.929 391.159 346.912 392.782C348.896 394.404 349.887 396.613 349.887 399.408C349.887 403.285 348.084 405.81 344.523 407.072C346.146 407.613 347.273 408.425 347.994 409.507C348.715 410.589 349.076 412.076 349.166 413.924ZM330.097 395.351V405.089H338.212C339.925 405.089 341.232 404.683 342.179 403.826C343.125 402.97 343.621 401.708 343.621 400.085C343.621 398.552 343.125 397.38 342.134 396.568C341.142 395.757 339.789 395.351 337.986 395.351H330.097Z" fill="#F9F7F6"/>
<path d="M312.585 390.347V395.802H295.003V403.376H310.917V408.605H295.003V416.99H312.495V422.445H288.917V390.347H312.585Z" fill="#F9F7F6"/>
<path d="M269.95 403.24V390.347H276.036V422.445H269.95V408.74H255.028V422.445H248.942V390.347H255.028V403.24H269.95Z" fill="#F9F7F6"/>
<path d="M211.517 390.347H238.205V395.802H227.927V422.445H221.796V395.802H211.517V390.347Z" fill="#F9F7F6"/>
<path d="M353.395 368.589H313.33L271.596 301.814L249.894 323.516V368.589H215.393L215.393 155.175H249.894V284.564L316.329 217.016H358.063L295.802 279.278L353.395 368.589Z" fill="#F9F7F6"/>
<path fill-rule="evenodd" clip-rule="evenodd" d="M359.863 372.114H311.376L270.955 307.44L253.419 324.976V372.114H211.868V151.649H253.419V275.952L314.851 213.491H366.574L300.306 279.758L359.863 372.114ZM295.802 279.277L358.063 217.016H316.328L249.894 284.564V155.174H215.393V368.589H249.894V323.516L271.596 301.814L313.33 368.589H353.395L295.802 279.277Z" fill="#F9F7F6"/>
<path d="M494.975 293.627C494.975 338.007 458.998 373.984 414.618 373.984C370.238 373.984 334.261 338.007 334.261 293.627C334.261 249.247 370.238 213.27 414.618 213.27C458.998 213.27 494.975 249.247 494.975 293.627ZM372.459 293.627C372.459 316.911 391.334 335.786 414.618 335.786C437.902 335.786 456.778 316.911 456.778 293.627C456.778 270.343 437.902 251.467 414.618 251.467C391.334 251.467 372.459 270.343 372.459 293.627Z" fill="#2378B9"/>
<path d="M502.151 189.005C497.503 187.76 494.744 182.982 495.99 178.334C497.236 173.685 502.013 170.927 506.662 172.172C511.31 173.418 514.069 178.196 512.823 182.844C511.578 187.492 506.8 190.251 502.151 189.005Z" fill="#F9F7F6"/>
<path d="M652.919 62.1413C637.942 58.1279 629.053 42.7325 633.066 27.7546C637.08 12.7767 652.475 3.88814 667.453 7.90146C682.431 11.9148 691.319 27.3102 687.306 42.2881C683.293 57.266 667.897 66.1546 652.919 62.1413Z" fill="#BAA14B"/>
<path d="M434.169 120.393C429.271 119.081 426.365 114.047 427.677 109.15C428.99 104.253 434.023 101.347 438.92 102.659C443.817 103.971 446.724 109.005 445.411 113.902C444.099 118.799 439.066 121.705 434.169 120.393Z" fill="#F9F7F6"/>
<path d="M276.14 82.6718C271.658 81.4708 268.998 76.8637 270.199 72.3815C271.4 67.8993 276.007 65.2394 280.489 66.4404C284.971 67.6414 287.631 72.2485 286.43 76.7307C285.229 81.2129 280.622 83.8728 276.14 82.6718Z" fill="#F9F7F6"/>
<path d="M335.615 186.594C327.461 184.409 322.622 176.028 324.807 167.873C326.991 159.719 335.373 154.88 343.527 157.065C351.681 159.25 356.52 167.631 354.335 175.786C352.15 183.94 343.769 188.779 335.615 186.594Z" fill="#0C7270"/>
<path d="M748.746 168.729C735.879 165.281 728.243 152.056 731.691 139.189C735.139 126.322 748.364 118.686 761.231 122.134C774.098 125.581 781.734 138.807 778.287 151.674C774.839 164.541 761.613 172.177 748.746 168.729Z" fill="#F9F7F6"/>
<path d="M594.584 129.097C594.584 139.043 586.521 147.106 576.575 147.106C566.629 147.106 558.567 139.043 558.567 129.097C558.567 119.151 566.629 111.088 576.575 111.088C586.521 111.088 594.584 119.151 594.584 129.097Z" fill="#788A5B"/>
<path d="M673.783 229.326C673.783 236.277 668.148 241.912 661.197 241.912C654.246 241.912 648.611 236.277 648.611 229.326C648.611 222.375 654.246 216.74 661.197 216.74C668.148 216.74 673.783 222.375 673.783 229.326Z" fill="#F9F7F6"/>
<path d="M565.228 371.196C522.102 371.196 499.585 354.213 497.677 320.246H532.884C533.838 329.406 536.795 335.894 541.757 339.71C546.909 343.527 554.924 345.435 565.8 345.435C585.264 345.435 594.996 339.52 594.996 327.689C594.996 322.346 592.897 318.243 588.699 315.381C584.501 312.518 576.963 310.133 566.087 308.225L549.199 305.362C516.95 300.019 500.825 285.135 500.825 260.71C500.825 246.78 506.168 235.903 516.854 228.079C527.541 220.065 542.616 216.058 562.079 216.058C604.251 216.058 626.005 232.755 627.341 266.148H593.279C592.897 257.371 590.13 251.169 584.978 247.543C579.826 243.727 572.193 241.819 562.079 241.819C544.905 241.819 536.318 247.543 536.318 258.993C536.318 263.954 538.227 267.866 542.043 270.728C545.859 273.4 552.157 275.499 560.934 277.025L579.54 279.888C597.477 283.132 610.453 288.284 618.467 295.344C626.673 302.405 630.775 312.232 630.775 324.826C630.775 339.71 625.051 351.16 613.601 359.174C602.152 367.189 586.028 371.196 565.228 371.196Z" fill="#F9F7F6"/>
<path fill-rule="evenodd" clip-rule="evenodd" d="M494.604 317.342H535.501L535.772 319.946C536.681 328.673 539.435 334.249 543.507 337.393C547.918 340.649 555.172 342.531 565.8 342.531C575.332 342.531 581.996 341.065 586.188 338.517C590.147 336.11 592.092 332.638 592.092 327.689C592.092 323.247 590.42 320.07 587.063 317.781C583.419 315.296 576.426 312.988 565.592 311.087C565.59 311.087 565.587 311.086 565.585 311.086L548.724 308.228C548.722 308.228 548.72 308.228 548.718 308.227C532.294 305.505 519.583 300.297 510.949 292.327C502.22 284.269 497.921 273.632 497.921 260.71C497.921 245.917 503.657 234.149 515.125 225.746C526.496 217.224 542.271 213.154 562.079 213.154C583.48 213.154 600.199 217.379 611.792 226.277C623.501 235.264 629.548 248.681 630.243 266.033L630.363 269.053H590.498L590.377 266.275C590.018 258.02 587.46 252.842 583.306 249.919L583.277 249.899L583.249 249.878C578.812 246.591 571.905 244.724 562.079 244.724C553.723 244.724 547.964 246.133 544.37 248.529C540.983 250.787 539.223 254.114 539.223 258.993C539.223 263.066 540.722 266.091 543.748 268.376C547.027 270.656 552.781 272.658 561.404 274.159L580.019 277.023L580.056 277.03C598.181 280.308 611.772 285.582 620.374 293.154C629.32 300.858 633.68 311.546 633.68 324.827C633.68 340.586 627.55 352.956 615.267 361.554C603.144 370.04 586.348 374.101 565.228 374.101C543.349 374.101 526.213 369.803 514.247 360.778C502.165 351.666 495.768 338.053 494.777 320.41L494.604 317.342ZM560.934 277.026C552.156 275.499 545.859 273.4 542.043 270.729C538.226 267.866 536.318 263.954 536.318 258.993C536.318 247.544 544.905 241.819 562.079 241.819C572.193 241.819 579.826 243.727 584.978 247.544C590.13 251.169 592.897 257.371 593.279 266.149H627.34C627.301 265.166 627.244 264.198 627.169 263.244C624.707 231.787 603.01 216.058 562.079 216.058C542.615 216.058 527.54 220.065 516.854 228.08C506.168 235.904 500.825 246.78 500.825 260.71C500.825 285.136 516.95 300.02 549.199 305.363L566.086 308.225C576.963 310.133 584.501 312.519 588.699 315.381C592.897 318.243 594.996 322.346 594.996 327.689C594.996 339.52 585.264 345.435 565.8 345.435C554.923 345.435 546.909 343.527 541.757 339.711C536.795 335.894 533.838 329.406 532.883 320.247H497.677C497.732 321.229 497.804 322.197 497.894 323.151C500.905 355.181 523.349 371.196 565.228 371.196C586.027 371.196 602.152 367.189 613.601 359.175C625.05 351.16 630.775 339.711 630.775 324.827C630.775 312.232 626.672 302.405 618.467 295.345C610.453 288.284 597.477 283.132 579.539 279.888L560.934 277.026Z" fill="#F9F7F6"/>
</svg>
