<svg width="111" height="24" viewBox="0 0 111 24" fill="none" xmlns="http://www.w3.org/2000/svg">
<path d="M98.4565 24H110.891L96.587 0H83.8913L89.1452 8.65696L80.7157 23.9239L77.5435 18.6013V0H75.6304V15.3922L66.4565 0H53.7609L57.1087 5.51652V23.9635L42.8261 0H30.1304L35.3843 8.65696L26.9548 23.9239L23.7826 18.6013V0H21.8696V15.3922L12.6957 0H0L3.34783 5.51652V24H5.26087V8.6687L14.5652 24H28.913L31.7578 18.8696H41.5822L44.6957 24H59.0217V8.6687L68.3261 24H82.6739L85.5187 18.8696H95.343L98.4565 24ZM32.7704 17.0435L36.4483 10.4104L40.4735 17.0435H32.77H32.7704ZM86.5313 17.0435L90.2091 10.4104L94.2343 17.0435H86.5309H86.5313Z" fill="#F1F1F1"/>
</svg>
